<svg xmlns='http://www.w3.org/2000/svg' version='1.1' viewBox='0 0 10 8.10'>
	<path class='corners' d='
		M 0.42 2.25
		L 5.00 5.00
		L 9.58 2.25' fill='#111'
	/>

	<path class='bulwark' d='
		M 0.83  0.83
		Q 5.00  0
		  9.17  0.83
		Q 8.33  4.44
		  5.00  8.05
		Q 1.67  4.44
		  0.83  0.83' fill='#c44731'
	/>

	<g class='op'>
		<path d='M 5.2476344,3.555881 C 5.2476314,3.6886948 5.2300533,3.8169499 5.1949,3.9406466 5.161043,4.0630434 5.1128659,4.1782776 5.0503688,4.2863498 4.987866,4.3931212 4.9123453,4.4907773 4.8238063,4.5793185 4.7352621,4.6678605 4.637606,4.7440323 4.5308375,4.8078341 4.4240645,4.8703342 4.3088303,4.9185113 4.1851344,4.9523654 4.0614347,4.9875216 3.9331796,5.0050997 3.8003688,5.0050998 3.6675549,5.0050997 3.5392998,4.9875216 3.4156032,4.9523654 3.2932063,4.9185113 3.177972,4.8703342 3.0699,4.8078341 2.9631285,4.7440323 2.8654723,4.6678605 2.7769313,4.5793185 2.6883892,4.4907773 2.6122174,4.3931212 2.5484157,4.2863498 2.4859154,4.1782776 2.4370873,4.0630434 2.4019313,3.9406466 2.368077,3.8169499 2.3511499,3.6886948 2.35115,3.555881 2.3511499,3.42307 2.368077,3.294815 2.4019313,3.1711154 2.4370873,3.0474194 2.4859154,2.9321851 2.5484157,2.8254123 2.6122174,2.7186437 2.6883892,2.6209875 2.7769313,2.5324435 2.8654723,2.4439044 2.9631285,2.3683836 3.0699,2.305881 3.177972,2.2433837 3.2932063,2.1952067 3.4156032,2.1613498 c 0.1236966,-0.035153 0.2519517,-0.052732 0.3847656,-0.052734 0.1328108,2.8e-6 0.2610659,0.017581 0.3847656,0.052734 0.1236959,0.033857 0.2389301,0.082034 0.3457031,0.1445312 0.1067685,0.062503 0.2044246,0.1380234 0.2929688,0.2265625 0.088539,0.088544 0.1640597,0.1862002 0.2265625,0.2929688 C 5.1128659,2.9321851 5.161043,3.0474194 5.1949,3.1711154 5.2300533,3.294815 5.2476314,3.42307 5.2476344,3.555881 m -0.5566406,0 C 4.6909913,3.4334867 4.6675539,3.3182524 4.6206813,3.2101779 4.573804,3.1008047 4.5100019,3.0064038 4.429275,2.9269748 4.3498458,2.8462477 4.2554449,2.7824457 4.1460719,2.7355685 4.0379972,2.6886958 3.9227629,2.6652583 3.8003688,2.665256 c -0.1236994,2.3e-6 -0.2395847,0.02344 -0.3476563,0.070312 -0.108074,0.046877 -0.2024749,0.1106792 -0.2832031,0.1914063 -0.08073,0.079429 -0.144532,0.1738299 -0.1914062,0.2832031 -0.046876,0.1080745 -0.070313,0.2233088 -0.070312,0.3457031 -7e-7,0.1223971 0.023437,0.2376314 0.070312,0.3457031 0.046874,0.1067718 0.1106762,0.2005217 0.1914062,0.28125 0.080728,0.08073 0.1751291,0.1445319 0.2832031,0.1914063 0.1080716,0.046876 0.2239569,0.070313 0.3476563,0.070312 0.1223941,5e-7 0.2376284,-0.023437 0.3457031,-0.070312 0.109373,-0.046874 0.2037739,-0.1106764 0.2832031,-0.1914063 0.080727,-0.080728 0.144529,-0.1744782 0.1914063,-0.28125 0.046873,-0.1080717 0.07031,-0.223306 0.070312,-0.3457031' fill='rgb(241,240,236)'/>

	    <path d='m 6.1734157,2.7043185 0,1.1210938 0.5605468,0 c 0.076822,1.1e-6 0.149087,-0.014322 0.2167969,-0.042969 0.067707,-0.029947 0.1269514,-0.070311 0.1777344,-0.1210937 0.050779,-0.05078 0.090493,-0.1100247 0.1191406,-0.1777344 0.029946,-0.069009 0.04492,-0.1419255 0.044922,-0.21875 -2e-6,-0.076821 -0.014976,-0.1490867 -0.044922,-0.2167969 C 7.2189867,2.9790601 7.1792732,2.9191643 7.1284938,2.868381 7.0777108,2.8176019 7.0184661,2.7778884 6.9507594,2.7492404 6.8830495,2.7192947 6.810784,2.7043208 6.7339625,2.7043185 l -0.5605468,0 m 0,2.2402344 -0.5605469,0 0,-2.8007813 1.1210937,0 c 0.1028631,2.8e-6 0.2018214,0.013675 0.296875,0.041016 0.09505,0.026044 0.1835919,0.063805 0.265625,0.1132812 0.083331,0.04818 0.1588521,0.1067734 0.2265625,0.1757813 0.069008,0.067711 0.1276019,0.1432315 0.1757813,0.2265625 0.049477,0.083336 0.087237,0.1725281 0.1132812,0.2675781 0.027341,0.095054 0.041013,0.1940122 0.041016,0.296875 -2.5e-6,0.1536474 -0.029299,0.2988295 -0.087891,0.4355469 C 7.7066164,3.83583 7.6265384,3.9543195 7.5249782,4.055881 7.4234136,4.1574443 7.3042731,4.2375224 7.1675563,4.2961154 7.0321379,4.3547097 6.8876068,4.3840066 6.7339625,4.384006 l -0.5605468,0 0,0.5605469' fill='rgb(241,240,236)'
	    />
	</g>

	<path class='ribbon' d='
		M 0.92  1.17
		L 9.08  1.17
		L 9.58  2.25
		L 0.42  2.25
		Z' style='fill:#474747'
	/>

	<g class='patience' fill='rgb(241,240,236)'>
		<path d="
			m 2.3726367,1.5299804 c -6e-7,0.072266 -0.02474,0.1279301 -0.074219,0.1669922 -0.049154,0.038737 -0.1196292,0.058106 -0.2114258,0.058105 l -0.083984,0 0,0.2807617 -0.083008,0 0,-0.7138672 0.1850586,0 c 0.1783849,7e-7 0.2675775,0.069337 0.2675781,0.2080078 m -0.3696289,0.1538086 0.074707,0 c 0.073567,4e-7 0.12679,-0.011881 0.159668,-0.035645 0.032877,-0.023763 0.049316,-0.061848 0.049316,-0.1142578 -5e-7,-0.0472 -0.015463,-0.082356 -0.046387,-0.1054688 C 2.2093876,1.4053066 2.1612106,1.3937506 2.0957812,1.39375 l -0.092773,0 0,0.290039"
		/>
		<path d="
			m 2.9914648,2.0358398 -0.088867,-0.2270508 -0.2861328,0 -0.087891,0.2270508 -0.083984,0 0.2822266,-0.7167969 0.069824,0 0.2807617,0.7167969 -0.085937,0 M 2.8767187,1.734082 2.7937109,1.5128906 c -0.010743,-0.027994 -0.02181,-0.062337 -0.033203,-0.1030274 -0.00716,0.031251 -0.017416,0.065593 -0.030762,0.1030274 l -0.083984,0.2211914 0.230957,0"
		/>
		<path d="
			m 3.3949609,2.0358398 -0.083008,0 0,-0.6401367 -0.2260743,0 0,-0.07373 0.5351563,0 0,0.07373 -0.2260742,0 0,0.6401367"
		/>
		<path d="
			m 3.7979687,2.0358398 0,-0.7138672 0.083008,0 0,0.7138672 -0.083008,0"
		/>
		<path d="
			m 4.5452148,2.0358398 -0.3979492,0 0,-0.7138672 0.3979492,0 0,0.07373 -0.3149414,0 0,0.2299804 0.2958984,0 0,0.073242 -0.2958984,0 0,0.2626953 0.3149414,0 0,0.074219"
		/>
		<path d="
			m 5.3315233,2.0358398 -0.094727,0 -0.3901367,-0.5991211 -0.00391,0 c 0.00521,0.070313 0.00781,0.1347661 0.00781,0.1933594 l 0,0.4057617 -0.07666,0 0,-0.7138672 0.09375,0 0.3891602,0.5966797 0.00391,0 c -6.516e-4,-0.00879 -0.00212,-0.036946 -0.00439,-0.084473 -0.00228,-0.047851 -0.00309,-0.082031 -0.00244,-0.102539 l 0,-0.409668 0.077637,0 0,0.7138672"
		/>
		<path d="
			m 5.9034766,1.3859375 c -0.078451,6e-7 -0.1404625,0.026205 -0.1860352,0.078613 -0.045248,0.052084 -0.067871,0.1235356 -0.067871,0.2143555 -10e-8,0.093425 0.02181,0.1656903 0.06543,0.2167969 0.043945,0.050781 0.106445,0.076172 0.1875,0.076172 0.049804,0 0.1066076,-0.00895 0.1704102,-0.026856 l 0,0.072754 c -0.04948,0.018555 -0.1105148,0.027832 -0.1831055,0.027832 -0.1051435,0 -0.1863609,-0.031901 -0.2436523,-0.095703 -0.056966,-0.063802 -0.085449,-0.1544594 -0.085449,-0.2719727 -1e-7,-0.073567 0.013672,-0.1380203 0.041016,-0.1933593 0.027669,-0.055338 0.067383,-0.097981 0.1191406,-0.1279297 0.052083,-0.029947 0.1132809,-0.044921 0.1835938,-0.044922 0.074869,7e-7 0.1402989,0.013673 0.196289,0.041016 L 6.065586,1.4240234 C 6.011549,1.3986334 5.9575126,1.3859381 5.9034766,1.3859375"
		/>
		<path d="
			m 6.6966208,2.0358398 -0.3979492,0 0,-0.7138672 0.3979492,0 0,0.07373 -0.3149414,0 0,0.2299804 0.2958985,0 0,0.073242 -0.2958985,0 0,0.2626953 0.3149414,0 0,0.074219"
		/>
		<path d="
			m 6.9013866,1.984082 c -1e-7,-0.02181 0.00488,-0.038249 0.014648,-0.049316 0.010091,-0.011393 0.024414,-0.01709 0.042969,-0.01709 0.01888,2e-7 0.033529,0.0057 0.043945,0.01709 0.010742,0.011068 0.016113,0.027507 0.016113,0.049316 -2e-7,0.021159 -0.00537,0.037435 -0.016113,0.048828 -0.010742,0.011393 -0.025391,0.01709 -0.043945,0.01709 -0.016602,-10e-8 -0.030436,-0.00505 -0.041504,-0.015137 -0.010742,-0.010417 -0.016113,-0.027344 -0.016113,-0.050781"
		/>
		<path d="
			m 7.2609376,2.0358398 0,-0.7138672 0.083008,0 0,0.7138672 -0.083008,0"
		/>
		<path d="
			m 8.0130662,1.8458984 c -5e-7,0.062826 -0.022787,0.1118165 -0.068359,0.1469726 -0.045573,0.035156 -0.1074222,0.052734 -0.1855469,0.052734 -0.084636,0 -0.1497397,-0.010905 -0.1953125,-0.032715 l 0,-0.080078 c 0.029297,0.01237 0.061198,0.022135 0.095703,0.029297 0.034505,0.00716 0.068685,0.010742 0.1025391,0.010742 0.055338,1e-7 0.097005,-0.010417 0.125,-0.03125 0.027994,-0.021159 0.041992,-0.050456 0.041992,-0.087891 -4e-7,-0.024739 -0.00505,-0.044922 -0.015137,-0.060547 -0.00977,-0.01595 -0.026368,-0.030599 -0.049805,-0.043945 -0.023112,-0.013346 -0.058431,-0.028483 -0.105957,-0.04541 -0.066407,-0.023763 -0.1139325,-0.05192 -0.1425782,-0.084473 -0.02832,-0.032552 -0.04248,-0.075032 -0.04248,-0.1274414 -1e-7,-0.055012 0.02067,-0.098795 0.062012,-0.1313477 0.041341,-0.032551 0.096028,-0.048827 0.1640625,-0.048828 0.070963,7e-7 0.13623,0.013022 0.1958008,0.039063 l -0.025879,0.072266 c -0.05892,-0.024739 -0.1162113,-0.037109 -0.171875,-0.037109 -0.043946,6e-7 -0.078288,0.00944 -0.1030274,0.02832 -0.02474,0.018881 -0.037109,0.045085 -0.037109,0.078613 -10e-8,0.02474 0.00456,0.045085 0.013672,0.061035 0.00911,0.015626 0.024414,0.030111 0.045898,0.043457 0.02181,0.013021 0.055013,0.027507 0.099609,0.043457 0.074869,0.026693 0.1263017,0.055339 0.1542969,0.085937 0.02832,0.030599 0.04248,0.070313 0.042481,0.1191406"
		/>
	</g>
</svg>
